<svg xmlns="http://www.w3.org/2000/svg" viewBox="0 0 500 241.7">
  <g>
    <path d="M133.74,195.54a11.95,11.95,0,1,0-8.43-3.5A11.5,11.5,0,0,0,133.74,195.54Z" transform="translate(0 -129.15)" style="fill: #fff"/>
    <path d="M220.78,326a11.95,11.95,0,1,0,8.44,3.5A11.49,11.49,0,0,0,220.78,326Z" transform="translate(0 -129.15)" style="fill: #fff"/>
    <path d="M185.18,326a11.95,11.95,0,1,0,8.44,3.5A11.49,11.49,0,0,0,185.18,326Z" transform="translate(0 -129.15)" style="fill: #fff"/>
    <polygon points="239.09 235.53 242.59 241.7 288.89 214.95 285.39 208.78 239.09 235.53" style="fill: #fff"/>
    <path d="M264,219.62a11.93,11.93,0,1,0-8.44-3.5A11.53,11.53,0,0,0,264,219.62Z" transform="translate(0 -129.15)" style="fill: #fff"/>
    <path d="M339.5,180.73a199.77,199.77,0,0,0,23.26-15q8.43-6.59,12-11.53t3.81-8.84a12,12,0,0,0-1.65-7,18,18,0,0,0-11.21-8.54,17.39,17.39,0,0,0-13.89,2,16.16,16.16,0,0,0-7.92,10.8,17.94,17.94,0,0,0,1.95,13.68,17.15,17.15,0,0,0,8.85,7.61L336,174.56Zm12.56-28a13,13,0,0,1-1.24-8.43,9.26,9.26,0,0,1,4.94-6.59,11.17,11.17,0,0,1,8.54-1,10.78,10.78,0,0,1,6.48,5.15,11.08,11.08,0,0,1,1.24,8.33,10,10,0,0,1-5.15,6.69,10.85,10.85,0,0,1-8.33,1.13A10.21,10.21,0,0,1,352.06,152.74Z" transform="translate(0 -129.15)" style="fill: #fff"/>
    <path d="M430,286.49H387.86a32.23,32.23,0,0,0,1.65-10.29,30.36,30.36,0,0,0-6-18.42,29.34,29.34,0,0,0-15.23-11,18.86,18.86,0,0,1-4.83-3.19q-2.78-2.37-4.43-8.54-1.44,6.16-4.11,8.54a13.66,13.66,0,0,1-4.73,3,30.27,30.27,0,0,0-15.64,11,29.93,29.93,0,0,0-6.18,18.62A32.23,32.23,0,0,0,330,286.49h-42V245.34l-20.58,4.52v36.63H226.34V245.34l-20.58,4.52v36.63H164.61V245.34a30.27,30.27,0,0,0-4.11-15.64,30.89,30.89,0,0,0-11.11-11.11A29.85,29.85,0,0,0,134,214.47a29.3,29.3,0,0,0-15.33,4.12,31.07,31.07,0,0,0-11,11.11,31.73,31.73,0,0,0,0,31.27,31,31,0,0,0,11,11.11A29.3,29.3,0,0,0,134,276.2,31.7,31.7,0,0,0,144,274.55v11.94H12.35L0,307.07H442.39a17.93,17.93,0,0,0,6.17-1.14,3.55,3.55,0,0,0,2.06-3.6V142.45L430,147ZM141.46,252.74a10.43,10.43,0,0,1-7.51,3.09,10.5,10.5,0,0,1,0-21,10.43,10.43,0,0,1,7.51,3.09,10.19,10.19,0,0,1,0,14.81Zm224.9,30.76a10.43,10.43,0,1,1,3-7.3A9.91,9.91,0,0,1,366.36,283.5Z" transform="translate(0 -129.15)" style="fill: #fff"/>
    <path d="M494.86,296.78a23.92,23.92,0,0,1-6.59.72,10.17,10.17,0,0,1-5.55-1.65c-1.52-1-2.27-2.78-2.27-5.25V142.45L459.88,147V290.6q0,7.41,3.7,11.42a17.33,17.33,0,0,0,9.16,5.25,26.3,26.3,0,0,0,11.31,0,26.85,26.85,0,0,0,10.29-4.42,14,14,0,0,0,5.66-7.72A32.63,32.63,0,0,1,494.86,296.78Z" transform="translate(0 -129.15)" style="fill: #fff"/>
  </g>
</svg>
