<?xml version="1.0" encoding="utf-8"?>
<!-- Generator: Adobe Illustrator 25.4.0, SVG Export Plug-In . SVG Version: 6.00 Build 0)  -->
<svg version="1.1" id="Layer_1" xmlns="http://www.w3.org/2000/svg" xmlns:xlink="http://www.w3.org/1999/xlink" x="0px" y="0px"
	 viewBox="0 0 500 241.7" style="enable-background:new 0 0 500 241.7;" xml:space="preserve">
<style type="text/css">
	.st0{fill:#323440;}
</style>
<g>
	<path class="st0" d="M133.7,66.4c6.6,0,12-5.3,12-11.9s-5.3-12-11.9-12s-12,5.3-12,11.9c0,3.2,1.3,6.2,3.5,8.5
		C127.5,65.2,130.6,66.4,133.7,66.4z"/>
	<path class="st0" d="M220.8,196.9c-6.6,0-12,5.3-12,11.9c0,6.6,5.3,12,11.9,12c6.6,0,12-5.3,12-11.9c0-3.2-1.3-6.2-3.5-8.5
		C227,198.1,224,196.8,220.8,196.9z"/>
	<path class="st0" d="M185.2,196.9c-6.6,0-12,5.3-12,11.9c0,6.6,5.3,12,11.9,12c6.6,0,12-5.3,12-11.9c0-3.2-1.3-6.2-3.5-8.5
		C191.4,198.1,188.4,196.8,185.2,196.9z"/>
	<polygon class="st0" points="239.1,235.5 242.6,241.7 288.9,214.9 285.4,208.8 	"/>
	<path class="st0" d="M264,90.5c6.6,0,11.9-5.3,11.9-11.9c0-6.6-5.3-11.9-11.9-11.9c-6.6,0-11.9,5.3-11.9,11.9
		c0,3.2,1.3,6.2,3.5,8.4C257.8,89.2,260.8,90.5,264,90.5z"/>
	<path class="st0" d="M339.5,51.6c8.1-4.5,15.9-9.5,23.3-15c5.6-4.4,9.6-8.2,12-11.5s3.6-6.2,3.8-8.8c0.2-2.4-0.4-4.9-1.6-7
		c-2.4-4.3-6.5-7.3-11.2-8.5c-4.7-1.3-9.7-0.6-13.9,2c-4.1,2.3-7,6.2-7.9,10.8c-1.2,4.6-0.5,9.6,2,13.7c2,3.5,5.1,6.2,8.9,7.6
		L336,45.4L339.5,51.6z M352.1,23.6c-1.3-2.6-1.8-5.6-1.2-8.4c0.5-2.8,2.4-5.3,4.9-6.6c2.6-1.5,5.7-1.8,8.5-1
		c2.8,0.8,5.1,2.6,6.5,5.1c1.5,2.5,1.9,5.5,1.2,8.3c-0.6,2.9-2.5,5.3-5.1,6.7c-2.5,1.5-5.5,1.9-8.3,1.1
		C355.7,28.1,353.4,26.2,352.1,23.6L352.1,23.6z"/>
	<path class="st0" d="M430,157.3h-42.1c1.1-3.3,1.7-6.8,1.6-10.3c0.1-6.6-2-13.1-6-18.4c-3.7-5.2-9.1-9.1-15.2-11
		c-1.8-0.8-3.4-1.9-4.8-3.2c-1.9-1.6-3.3-4.4-4.4-8.5c-1,4.1-2.3,7-4.1,8.5c-1.4,1.3-3,2.3-4.7,3c-6.3,1.9-11.8,5.7-15.6,11
		c-4.1,5.3-6.3,11.9-6.2,18.6c0,3.5,0.5,7,1.6,10.3h-42v-41.1l-20.6,4.5v36.6h-41.1v-41.1l-20.6,4.5v36.6h-41.1v-41.1
		c0.1-5.5-1.3-10.9-4.1-15.6c-2.7-4.6-6.5-8.4-11.1-11.1c-4.7-2.7-10-4.2-15.4-4.1c-5.4-0.1-10.7,1.4-15.3,4.1
		c-4.6,2.7-8.3,6.5-11,11.1c-5.5,9.7-5.5,21.6,0,31.3c2.7,4.6,6.4,8.4,11,11.1c4.6,2.8,9.9,4.2,15.3,4.1c3.4,0,6.8-0.6,10-1.7v11.9
		H12.4L0,177.9h442.4c2.1,0,4.2-0.4,6.2-1.1c1.4-0.6,2.2-2.1,2.1-3.6V13.3L430,17.9V157.3z M141.5,123.6c-2,2-4.7,3.1-7.5,3.1
		c-5.8,0-10.5-4.7-10.5-10.5s4.7-10.5,10.5-10.5c2.8,0,5.5,1.1,7.5,3.1c4.1,3.9,4.3,10.3,0.4,14.4
		C141.7,123.3,141.6,123.4,141.5,123.6L141.5,123.6z M366.4,154.4c-4,4.1-10.6,4.2-14.7,0.1c-4.1-4-4.2-10.6-0.1-14.7
		c4-4.1,10.6-4.2,14.7-0.1c2,2,3.1,4.6,3.1,7.4C369.4,149.8,368.3,152.4,366.4,154.4z"/>
	<path class="st0" d="M494.9,167.6c-2.2,0.5-4.4,0.8-6.6,0.7c-2,0-3.9-0.6-5.5-1.6c-1.5-1-2.3-2.8-2.3-5.2V13.3l-20.6,4.6v143.6
		c0,4.9,1.2,8.7,3.7,11.4c2.4,2.7,5.6,4.5,9.2,5.2c3.7,0.8,7.6,0.8,11.3,0c3.7-0.7,7.2-2.2,10.3-4.4c2.7-1.8,4.7-4.6,5.7-7.7
		C498.3,166.7,496.6,167.2,494.9,167.6z"/>
</g>
</svg>
